# xmcd CD database file
#
# Track frame offsets:
#	150
#	14115
#	28735
#	45790
#	64877
#	80380
#	97072
#	113777
#	129440
#	146365
#	159620
#	176285
#
# Disc length: 2556 seconds
#
# Revision: 3
# Processed by: cddbd v1.5.2PL0 Copyright (c) Steve Scherf et al.
# Submitted via: CDex 1.51
#
DISCID=9809fa0c
DTITLE=Craig Morgan - A Whole Lot More To Me
DYEAR=2016
DGENRE=Country
TTITLE0=Craig Morgan - I'll Be Home Soon
TTITLE1=Craig Morgan - Living On The Memories
TTITLE2=Craig Morgan - All Cried Out
TTITLE3=Craig Morgan - A Whole Lot More To Me
TTITLE4=Craig Morgan feat. Mac Powell - Hearts I Leave Behind
TTITLE5=Craig Morgan - Country Side Of Heaven
TTITLE6=Craig Morgan - Nowhere Without You
TTITLE7=Craig Morgan - I'm That Country
TTITLE8=Craig Morgan - When I'm Gone
TTITLE9=Craig Morgan - Who Would It Be
TTITLE10=Craig Morgan - Remind Me Why I'm Crazy
TTITLE11=Craig Morgan - I Can't Wait To Stay
EXTD=YEAR: 2016
EXTT0=
EXTT1=
EXTT2=
EXTT3=
EXTT4=
EXTT5=
EXTT6=
EXTT7=
EXTT8=
EXTT9=
EXTT10=
EXTT11=
PLAYORDER=
